<?xml version="1.0" encoding="UTF-8"?>
<svg xmlns="http://www.w3.org/2000/svg" xmlns:xlink="http://www.w3.org/1999/xlink" width="92pt" height="92pt" viewBox="0 0 92 92" version="1.1">
<g id="surface1">
<path style=" stroke:none;fill-rule:nonzero;fill:rgb(98.039216%,96.862745%,96.078431%);fill-opacity:1;" d="M 71.40625 77.804688 L 71.40625 12.398438 L 18.9375 12.398438 L 18.9375 77.804688 "/>
<path style=" stroke:none;fill-rule:nonzero;fill:rgb(81.960784%,68.235294%,89.803922%);fill-opacity:1;" d="M 26.644531 1.796875 C 22.390625 1.796875 18.9375 5.246094 18.9375 9.503906 L 18.9375 12.398438 L 71.40625 12.398438 L 71.40625 9.503906 C 71.40625 5.246094 67.957031 1.796875 63.699219 1.796875 Z M 26.644531 1.796875 "/>
<path style=" stroke:none;fill-rule:nonzero;fill:rgb(81.960784%,68.235294%,89.803922%);fill-opacity:1;" d="M 36.152344 77.804688 L 18.9375 77.804688 L 18.9375 82.496094 C 18.9375 86.753906 22.386719 90.203125 26.644531 90.203125 L 63.699219 90.203125 C 67.957031 90.203125 71.40625 86.753906 71.40625 82.496094 L 71.40625 77.804688 L 52.398438 77.804688 "/>
<path style=" stroke:none;fill-rule:nonzero;fill:rgb(100%,90.196078%,70.588235%);fill-opacity:1;" d="M 63.914062 66.023438 L 57.15625 71.011719 L 56.320312 66.023438 L 52 66.023438 C 50.605469 66.023438 49.476562 64.894531 49.476562 63.496094 L 49.476562 41.589844 C 49.476562 40.191406 50.605469 39.0625 52 39.0625 L 83.492188 39.0625 C 84.886719 39.0625 86.015625 40.191406 86.015625 41.589844 L 86.015625 63.496094 C 86.015625 64.894531 84.882812 66.023438 83.492188 66.023438 Z M 63.914062 66.023438 "/>
<path style=" stroke:none;fill-rule:nonzero;fill:rgb(80%,96.078431%,98.823529%);fill-opacity:1;" d="M 28.085938 47.003906 L 34.84375 51.992188 L 35.679688 47.003906 L 40 47.003906 C 41.394531 47.003906 42.523438 45.871094 42.523438 44.476562 L 42.523438 22.566406 C 42.523438 21.171875 41.394531 20.039062 40 20.039062 L 8.507812 20.039062 C 7.117188 20.039062 5.984375 21.171875 5.984375 22.566406 L 5.984375 44.476562 C 5.984375 45.871094 7.117188 47.003906 8.507812 47.003906 Z M 28.085938 47.003906 "/>
<path style=" stroke:none;fill-rule:nonzero;fill:rgb(0%,0%,0%);fill-opacity:1;" d="M 34.058594 30.875 L 13.6875 30.875 C 12.695312 30.875 11.890625 30.070312 11.890625 29.078125 C 11.890625 28.085938 12.695312 27.28125 13.6875 27.28125 L 34.058594 27.28125 C 35.050781 27.28125 35.855469 28.085938 35.855469 29.078125 C 35.855469 30.070312 35.050781 30.875 34.058594 30.875 Z M 34.058594 30.875 "/>
<path style=" stroke:none;fill-rule:nonzero;fill:rgb(0%,0%,0%);fill-opacity:1;" d="M 34.058594 38.515625 L 13.6875 38.515625 C 12.695312 38.515625 11.890625 37.710938 11.890625 36.71875 C 11.890625 35.726562 12.695312 34.921875 13.6875 34.921875 L 34.058594 34.921875 C 35.050781 34.921875 35.855469 35.726562 35.855469 36.71875 C 35.855469 37.710938 35.050781 38.515625 34.058594 38.515625 Z M 34.058594 38.515625 "/>
<path style=" stroke:none;fill-rule:nonzero;fill:rgb(0%,0%,0%);fill-opacity:1;" d="M 77.746094 50.453125 L 57.375 50.453125 C 56.382812 50.453125 55.578125 49.648438 55.578125 48.65625 C 55.578125 47.664062 56.382812 46.859375 57.375 46.859375 L 77.746094 46.859375 C 78.738281 46.859375 79.542969 47.664062 79.542969 48.65625 C 79.542969 49.648438 78.738281 50.453125 77.746094 50.453125 Z M 77.746094 50.453125 "/>
<path style=" stroke:none;fill-rule:nonzero;fill:rgb(0%,0%,0%);fill-opacity:1;" d="M 77.746094 58.089844 L 57.375 58.089844 C 56.382812 58.089844 55.578125 57.285156 55.578125 56.292969 C 55.578125 55.300781 56.382812 54.496094 57.375 54.496094 L 77.746094 54.496094 C 78.738281 54.496094 79.542969 55.300781 79.542969 56.292969 C 79.542969 57.285156 78.738281 58.089844 77.746094 58.089844 Z M 77.746094 58.089844 "/>
<path style=" stroke:none;fill-rule:nonzero;fill:rgb(0%,0%,0%);fill-opacity:1;" d="M 44.308594 79.601562 C 43.558594 79.601562 42.867188 79.117188 42.617188 78.410156 C 42.367188 77.710938 42.578125 76.914062 43.144531 76.433594 C 43.734375 75.933594 44.597656 75.875 45.253906 76.28125 C 45.882812 76.667969 46.214844 77.433594 46.066406 78.15625 C 45.902344 78.984375 45.152344 79.601562 44.308594 79.601562 Z M 44.308594 79.601562 "/>
<path style=" stroke:none;fill-rule:nonzero;fill:rgb(0%,0%,0%);fill-opacity:1;" d="M 83.492188 37.265625 L 73.203125 37.265625 L 73.203125 9.503906 C 73.203125 4.261719 68.941406 0 63.699219 0 L 26.644531 0 C 21.40625 0 17.140625 4.261719 17.140625 9.503906 L 17.140625 18.242188 L 8.507812 18.242188 C 6.125 18.242188 4.1875 20.183594 4.1875 22.566406 L 4.1875 44.476562 C 4.1875 46.859375 6.125 48.800781 8.507812 48.800781 L 17.140625 48.800781 L 17.140625 82.496094 C 17.140625 87.738281 21.40625 92 26.644531 92 L 63.699219 92 C 68.941406 92 73.203125 87.738281 73.203125 82.496094 L 73.203125 67.820312 L 83.492188 67.820312 C 85.875 67.820312 87.8125 65.882812 87.8125 63.496094 L 87.8125 41.589844 C 87.8125 39.203125 85.875 37.265625 83.492188 37.265625 Z M 20.734375 9.503906 C 20.734375 6.246094 23.386719 3.59375 26.644531 3.59375 L 63.699219 3.59375 C 66.957031 3.59375 69.609375 6.246094 69.609375 9.503906 L 69.609375 10.601562 L 20.734375 10.601562 Z M 7.78125 44.476562 L 7.78125 22.566406 C 7.78125 22.164062 8.109375 21.835938 8.507812 21.835938 L 40 21.835938 C 40.398438 21.835938 40.726562 22.164062 40.726562 22.566406 L 40.726562 44.476562 C 40.726562 44.878906 40.398438 45.207031 40 45.207031 L 35.679688 45.207031 C 34.800781 45.207031 34.050781 45.839844 33.90625 46.707031 L 33.554688 48.808594 L 29.15625 45.558594 C 28.84375 45.328125 28.472656 45.207031 28.085938 45.207031 L 8.507812 45.207031 C 8.109375 45.207031 7.78125 44.878906 7.78125 44.476562 Z M 69.609375 76.007812 L 52.398438 76.007812 C 51.40625 76.007812 50.601562 76.8125 50.601562 77.804688 C 50.601562 78.796875 51.40625 79.601562 52.398438 79.601562 L 69.609375 79.601562 L 69.609375 82.496094 C 69.609375 85.753906 66.957031 88.40625 63.699219 88.40625 L 26.644531 88.40625 C 23.386719 88.40625 20.734375 85.753906 20.734375 82.496094 L 20.734375 79.601562 L 36.152344 79.601562 C 37.144531 79.601562 37.949219 78.796875 37.949219 77.804688 C 37.949219 76.8125 37.144531 76.007812 36.152344 76.007812 L 20.734375 76.007812 L 20.734375 48.800781 L 27.496094 48.800781 L 33.777344 53.4375 C 34.089844 53.667969 34.464844 53.789062 34.84375 53.789062 C 35.070312 53.789062 35.300781 53.746094 35.515625 53.65625 C 36.097656 53.421875 36.511719 52.90625 36.617188 52.289062 L 37.199219 48.800781 L 40 48.800781 C 42.382812 48.800781 44.320312 46.859375 44.320312 44.476562 L 44.320312 22.566406 C 44.320312 20.183594 42.382812 18.242188 40 18.242188 L 20.734375 18.242188 L 20.734375 14.195312 L 69.609375 14.195312 L 69.609375 37.265625 L 52 37.265625 C 49.617188 37.265625 47.679688 39.203125 47.679688 41.589844 L 47.679688 63.496094 C 47.679688 65.882812 49.617188 67.820312 52 67.820312 L 54.800781 67.820312 L 55.382812 71.308594 C 55.488281 71.925781 55.902344 72.445312 56.484375 72.675781 C 56.699219 72.765625 56.929688 72.808594 57.15625 72.808594 C 57.535156 72.808594 57.910156 72.6875 58.222656 72.457031 L 64.503906 67.820312 L 69.609375 67.820312 Z M 84.21875 63.496094 C 84.21875 63.898438 83.890625 64.226562 83.492188 64.226562 L 63.914062 64.226562 C 63.527344 64.226562 63.15625 64.351562 62.84375 64.578125 L 58.445312 67.828125 L 58.09375 65.726562 C 57.949219 64.863281 57.199219 64.226562 56.320312 64.226562 L 52 64.226562 C 51.601562 64.226562 51.273438 63.898438 51.273438 63.496094 L 51.273438 41.589844 C 51.273438 41.1875 51.601562 40.859375 52 40.859375 L 83.492188 40.859375 C 83.890625 40.859375 84.21875 41.1875 84.21875 41.589844 Z M 84.21875 63.496094 "/>
</g>
</svg>
