<?xml version="1.0" encoding="UTF-8"?>
<svg xmlns="http://www.w3.org/2000/svg" xmlns:xlink="http://www.w3.org/1999/xlink" width="88pt" height="88pt" viewBox="0 0 88 88" version="1.1">
<g id="surface1">
<path style=" stroke:none;fill-rule:nonzero;fill:rgb(25.098039%,43.921569%,57.647059%);fill-opacity:1;" d="M 65.398438 67.578125 L 66.277344 64.746094 L 66.277344 4.167969 C 66.277344 3.300781 65.570312 2.59375 64.703125 2.59375 L 23.300781 2.59375 C 22.433594 2.59375 21.726562 3.300781 21.726562 4.167969 L 21.726562 64.746094 L 22.605469 67.578125 Z M 65.398438 67.578125 "/>
<path style=" stroke:none;fill-rule:nonzero;fill:rgb(85.490196%,90.588235%,93.72549%);fill-opacity:1;" d="M 21.726562 64.746094 L 21.726562 75.652344 C 21.726562 76.519531 22.433594 77.222656 23.300781 77.222656 L 64.703125 77.222656 C 65.570312 77.222656 66.277344 76.519531 66.277344 75.652344 L 66.277344 64.746094 Z M 21.726562 64.746094 "/>
<path style=" stroke:none;fill-rule:nonzero;fill:rgb(16.862745%,30.196078%,40%);fill-opacity:1;" d="M 64.703125 2.59375 L 60.472656 2.59375 L 60.472656 67.578125 L 65.398438 67.578125 L 66.277344 64.746094 L 66.277344 4.167969 C 66.277344 3.300781 65.570312 2.59375 64.703125 2.59375 Z M 64.703125 2.59375 "/>
<path style=" stroke:none;fill-rule:nonzero;fill:rgb(75.686275%,83.529412%,89.411765%);fill-opacity:1;" d="M 60.472656 64.746094 L 60.472656 69.847656 C 60.472656 70.71875 59.769531 71.421875 58.898438 71.421875 L 21.726562 71.421875 L 21.726562 75.652344 C 21.726562 76.519531 22.433594 77.222656 23.300781 77.222656 L 64.703125 77.222656 C 65.570312 77.222656 66.277344 76.519531 66.277344 75.652344 L 66.277344 64.746094 Z M 60.472656 64.746094 "/>
<path style=" stroke:none;fill-rule:nonzero;fill:rgb(91.764706%,67.45098%,61.568627%);fill-opacity:1;" d="M 86.226562 68.214844 C 86.167969 67.863281 86.09375 67.515625 86 67.171875 L 80.808594 47.503906 C 80.417969 46.027344 79.699219 44.65625 78.703125 43.496094 C 78.070312 42.753906 77.546875 41.925781 77.148438 41.035156 L 68.851562 22.488281 C 68.574219 21.867188 68.125 21.378906 67.589844 21.046875 L 67.589844 39.074219 L 68.523438 42.054688 C 68.683594 42.566406 68.765625 43.097656 68.761719 43.632812 L 68.75 52.371094 C 68.746094 54.496094 67.019531 56.21875 64.890625 56.21875 L 64.871094 56.21875 C 63.648438 56.210938 62.496094 55.640625 61.742188 54.679688 C 60.398438 52.964844 58.410156 50.417969 58.410156 50.417969 C 57.285156 48.972656 55.484375 48.070312 53.652344 48.066406 C 52.304688 48.050781 50.945312 48.472656 49.804688 49.367188 C 48.988281 50.003906 48.84375 51.179688 49.484375 51.996094 L 57.8125 62.648438 C 58.28125 63.246094 58.515625 63.988281 58.519531 64.75 C 58.527344 67.996094 60.785156 70.804688 63.957031 71.507812 L 67.578125 72.308594 C 67.9375 72.386719 68.195312 72.707031 68.195312 73.078125 L 68.195312 83.847656 C 68.195312 84.707031 68.890625 85.40625 69.753906 85.40625 L 85.125 85.375 C 85.988281 85.375 86.683594 84.675781 86.683594 83.816406 L 86.683594 74.027344 C 86.683594 72.082031 86.53125 70.136719 86.226562 68.214844 Z M 86.226562 68.214844 "/>
<path style=" stroke:none;fill-rule:nonzero;fill:rgb(86.666667%,34.117647%,56.470588%);fill-opacity:1;" d="M 34.632812 16.066406 C 34.632812 17.96875 33.09375 19.507812 31.191406 19.507812 C 29.292969 19.507812 27.753906 17.96875 27.753906 16.066406 C 27.753906 14.167969 29.292969 12.628906 31.191406 12.628906 C 33.09375 12.628906 34.632812 14.167969 34.632812 16.066406 Z M 34.632812 16.066406 "/>
<path style=" stroke:none;fill-rule:nonzero;fill:rgb(86.666667%,34.117647%,56.470588%);fill-opacity:1;" d="M 60.113281 16.066406 C 60.113281 17.96875 58.574219 19.507812 56.675781 19.507812 C 54.773438 19.507812 53.234375 17.96875 53.234375 16.066406 C 53.234375 14.167969 54.773438 12.628906 56.675781 12.628906 C 58.574219 12.628906 60.113281 14.167969 60.113281 16.066406 Z M 60.113281 16.066406 "/>
<path style=" stroke:none;fill-rule:nonzero;fill:rgb(86.666667%,34.117647%,56.470588%);fill-opacity:1;" d="M 34.632812 27.753906 C 34.632812 29.65625 33.09375 31.195312 31.191406 31.195312 C 29.292969 31.195312 27.753906 29.65625 27.753906 27.753906 C 27.753906 25.855469 29.292969 24.316406 31.191406 24.316406 C 33.09375 24.316406 34.632812 25.855469 34.632812 27.753906 Z M 34.632812 27.753906 "/>
<path style=" stroke:none;fill-rule:nonzero;fill:rgb(86.666667%,34.117647%,56.470588%);fill-opacity:1;" d="M 47.265625 39.265625 C 47.265625 41.167969 45.726562 42.707031 43.828125 42.707031 C 41.925781 42.707031 40.386719 41.167969 40.386719 39.265625 C 40.386719 37.367188 41.925781 35.828125 43.828125 35.828125 C 45.726562 35.828125 47.265625 37.367188 47.265625 39.265625 Z M 47.265625 39.265625 "/>
<path style=" stroke:none;fill-rule:nonzero;fill:rgb(96.470588%,88.627451%,40%);fill-opacity:1;" d="M 42.59375 13.464844 L 40.425781 17.21875 C 39.878906 18.167969 40.5625 19.351562 41.660156 19.351562 L 45.992188 19.351562 C 47.089844 19.351562 47.773438 18.167969 47.226562 17.21875 L 45.058594 13.464844 C 44.511719 12.515625 43.140625 12.515625 42.59375 13.464844 Z M 42.59375 13.464844 "/>
<path style=" stroke:none;fill-rule:nonzero;fill:rgb(96.470588%,88.627451%,40%);fill-opacity:1;" d="M 55.441406 25.152344 L 53.273438 28.90625 C 52.726562 29.855469 53.410156 31.039062 54.507812 31.039062 L 58.839844 31.039062 C 59.9375 31.039062 60.621094 29.855469 60.074219 28.90625 L 57.90625 25.152344 C 57.359375 24.203125 55.988281 24.203125 55.441406 25.152344 Z M 55.441406 25.152344 "/>
<path style=" stroke:none;fill-rule:nonzero;fill:rgb(96.470588%,88.627451%,40%);fill-opacity:1;" d="M 29.960938 36.839844 L 27.792969 40.59375 C 27.246094 41.542969 27.929688 42.726562 29.027344 42.726562 L 33.359375 42.726562 C 34.453125 42.726562 35.140625 41.542969 34.59375 40.59375 L 32.425781 36.839844 C 31.878906 35.890625 30.507812 35.890625 29.960938 36.839844 Z M 29.960938 36.839844 "/>
<path style=" stroke:none;fill-rule:nonzero;fill:rgb(38.039216%,63.529412%,97.647059%);fill-opacity:1;" d="M 59.984375 42.726562 L 53.363281 42.726562 C 52.886719 42.726562 52.503906 42.34375 52.503906 41.867188 L 52.503906 37.90625 C 52.503906 37.433594 52.886719 37.046875 53.363281 37.046875 L 59.984375 37.046875 C 60.460938 37.046875 60.84375 37.433594 60.84375 37.90625 L 60.84375 41.867188 C 60.84375 42.34375 60.460938 42.726562 59.984375 42.726562 Z M 59.984375 42.726562 "/>
<path style=" stroke:none;fill-rule:nonzero;fill:rgb(38.039216%,63.529412%,97.647059%);fill-opacity:1;" d="M 47.140625 30.597656 L 40.515625 30.597656 C 40.042969 30.597656 39.65625 30.210938 39.65625 29.738281 L 39.65625 25.773438 C 39.65625 25.300781 40.042969 24.914062 40.515625 24.914062 L 47.140625 24.914062 C 47.613281 24.914062 48 25.300781 48 25.773438 L 48 29.738281 C 48 30.210938 47.613281 30.597656 47.140625 30.597656 Z M 47.140625 30.597656 "/>
<path style=" stroke:none;fill-rule:nonzero;fill:rgb(87.45098%,57.647059%,50.196078%);fill-opacity:1;" d="M 86.226562 68.214844 C 86.167969 67.863281 86.09375 67.515625 86 67.171875 L 80.808594 47.503906 C 80.417969 46.027344 79.699219 44.65625 78.703125 43.496094 C 78.070312 42.753906 77.546875 41.925781 77.148438 41.035156 L 68.851562 22.488281 C 68.574219 21.867188 68.125 21.378906 67.589844 21.046875 L 67.589844 28.078125 L 73.386719 41.039062 C 73.785156 41.925781 74.308594 42.753906 74.941406 43.496094 C 75.9375 44.65625 76.65625 46.027344 77.046875 47.503906 L 82.238281 67.171875 C 82.332031 67.515625 82.40625 67.863281 82.464844 68.214844 C 82.769531 70.136719 82.921875 72.082031 82.921875 74.027344 L 82.921875 83.816406 C 82.921875 84.675781 82.226562 85.375 81.363281 85.375 L 69.609375 85.398438 C 69.65625 85.402344 69.703125 85.40625 69.753906 85.40625 L 85.125 85.375 C 85.988281 85.375 86.683594 84.675781 86.683594 83.816406 L 86.683594 74.027344 C 86.683594 72.082031 86.53125 70.136719 86.226562 68.214844 Z M 86.226562 68.214844 "/>
<path style=" stroke:none;fill-rule:nonzero;fill:rgb(91.764706%,67.45098%,61.568627%);fill-opacity:1;" d="M 38.195312 49.367188 C 37.054688 48.472656 35.695312 48.050781 34.347656 48.066406 C 32.515625 48.070312 30.714844 48.972656 29.589844 50.417969 C 29.589844 50.417969 27.601562 52.964844 26.257812 54.679688 C 25.5 55.640625 24.351562 56.207031 23.125 56.21875 L 23.105469 56.21875 C 20.980469 56.21875 19.253906 54.496094 19.25 52.371094 L 19.238281 43.632812 C 19.234375 43.097656 19.316406 42.566406 19.476562 42.054688 L 20.414062 39.0625 L 20.414062 21.046875 C 19.875 21.378906 19.425781 21.867188 19.148438 22.488281 L 10.851562 41.035156 C 10.453125 41.925781 9.929688 42.753906 9.296875 43.496094 C 8.300781 44.65625 7.582031 46.023438 7.191406 47.503906 L 2 67.171875 C 1.90625 67.515625 1.832031 67.863281 1.773438 68.214844 C 1.46875 70.136719 1.316406 72.082031 1.316406 74.027344 L 1.316406 83.816406 C 1.316406 84.675781 2.011719 85.375 2.875 85.375 L 18.246094 85.40625 C 19.109375 85.40625 19.804688 84.707031 19.804688 83.847656 L 19.804688 73.078125 C 19.804688 72.707031 20.0625 72.386719 20.421875 72.308594 L 24.042969 71.507812 C 27.214844 70.804688 29.472656 67.996094 29.480469 64.75 C 29.484375 63.988281 29.71875 63.246094 30.1875 62.648438 L 38.515625 51.996094 C 39.15625 51.179688 39.011719 50.003906 38.195312 49.367188 Z M 38.195312 49.367188 "/>
<path style=" stroke:none;fill-rule:nonzero;fill:rgb(87.45098%,57.647059%,50.196078%);fill-opacity:1;" d="M 38.195312 49.367188 C 37.617188 48.914062 36.980469 48.582031 36.316406 48.367188 C 36.25 48.550781 36.15625 48.726562 36.03125 48.886719 L 27.699219 59.542969 C 27.230469 60.140625 26.996094 60.882812 26.992188 61.644531 C 26.984375 64.890625 24.726562 67.699219 21.554688 68.402344 L 16.863281 69.613281 C 16.503906 69.695312 16.246094 70.011719 16.246094 70.382812 L 16.246094 85.402344 L 18.246094 85.40625 C 19.109375 85.40625 19.804688 84.707031 19.804688 83.847656 L 19.804688 73.078125 C 19.804688 72.707031 20.0625 72.386719 20.421875 72.308594 L 24.042969 71.507812 C 27.214844 70.804688 29.472656 67.996094 29.480469 64.75 C 29.484375 63.988281 29.71875 63.246094 30.1875 62.648438 L 38.515625 51.996094 C 39.15625 51.179688 39.011719 50.003906 38.195312 49.367188 Z M 38.195312 49.367188 "/>
<path style=" stroke:none;fill-rule:nonzero;fill:rgb(0%,0%,0%);fill-opacity:1;" d="M 87.523438 68.007812 C 87.464844 67.632812 87.382812 67.25 87.273438 66.835938 L 82.078125 47.167969 C 81.640625 45.507812 80.820312 43.941406 79.703125 42.640625 C 79.152344 41.996094 78.695312 41.273438 78.347656 40.5 L 70.050781 21.949219 C 69.5625 20.859375 68.683594 20.015625 67.589844 19.574219 L 67.589844 4.167969 C 67.589844 2.578125 66.296875 1.28125 64.703125 1.28125 L 57.023438 1.28125 C 56.300781 1.28125 55.710938 1.867188 55.710938 2.59375 C 55.710938 3.320312 56.296875 3.910156 57.023438 3.910156 L 64.703125 3.910156 C 64.84375 3.910156 64.960938 4.027344 64.960938 4.167969 L 64.960938 54.902344 C 64.9375 54.902344 64.914062 54.90625 64.894531 54.90625 L 64.886719 54.90625 C 64.058594 54.898438 63.289062 54.519531 62.777344 53.867188 C 61.4375 52.15625 59.449219 49.613281 59.445312 49.613281 C 58.058594 47.824219 55.894531 46.757812 53.667969 46.753906 C 53.636719 46.75 53.609375 46.75 53.578125 46.75 C 51.921875 46.75 50.300781 47.308594 48.996094 48.332031 C 47.609375 49.414062 47.363281 51.421875 48.445312 52.804688 L 56.777344 63.457031 C 57.054688 63.8125 57.203125 64.261719 57.203125 64.753906 C 57.214844 68.644531 59.875 71.949219 63.671875 72.789062 L 64.960938 73.074219 L 64.960938 75.652344 C 64.960938 75.792969 64.84375 75.910156 64.703125 75.910156 L 23.300781 75.910156 C 23.160156 75.910156 23.042969 75.792969 23.042969 75.652344 L 23.042969 73.074219 L 24.328125 72.789062 C 27.691406 72.046875 30.160156 69.367188 30.6875 66.0625 L 51.296875 66.0625 C 52.023438 66.0625 52.613281 65.472656 52.613281 64.746094 C 52.613281 64.019531 52.023438 63.433594 51.296875 63.433594 L 31.242188 63.433594 L 39.554688 52.804688 C 40.636719 51.421875 40.390625 49.414062 39.003906 48.332031 C 37.699219 47.308594 36.078125 46.75 34.433594 46.75 C 34.40625 46.75 34.375 46.75 34.34375 46.75 C 32.105469 46.757812 29.941406 47.824219 28.554688 49.609375 C 28.554688 49.609375 26.566406 52.15625 25.222656 53.867188 C 24.710938 54.519531 23.941406 54.898438 23.128906 54.90625 L 23.109375 54.90625 C 23.085938 54.90625 23.0625 54.902344 23.042969 54.902344 L 23.042969 4.167969 C 23.042969 4.027344 23.160156 3.910156 23.300781 3.910156 L 50.304688 3.910156 C 51.03125 3.910156 51.617188 3.320312 51.617188 2.59375 C 51.617188 1.867188 51.03125 1.28125 50.304688 1.28125 L 23.300781 1.28125 C 21.707031 1.28125 20.414062 2.574219 20.414062 4.167969 L 20.414062 19.574219 C 19.320312 20.015625 18.4375 20.859375 17.949219 21.949219 L 9.652344 40.5 C 9.304688 41.273438 8.851562 41.992188 8.296875 42.640625 C 7.179688 43.941406 6.359375 45.507812 5.921875 47.167969 L 2.796875 59.003906 C 2.609375 59.707031 3.027344 60.425781 3.730469 60.613281 C 4.414062 60.796875 5.15625 60.382812 5.335938 59.675781 L 8.464844 47.839844 C 8.800781 46.558594 9.433594 45.355469 10.292969 44.351562 C 11.011719 43.511719 11.601562 42.578125 12.050781 41.574219 L 20.347656 23.023438 C 20.367188 22.980469 20.390625 22.941406 20.414062 22.898438 L 20.414062 34.660156 L 18.222656 41.660156 C 18.023438 42.300781 17.921875 42.964844 17.921875 43.636719 L 17.9375 52.371094 C 17.941406 55.21875 20.261719 57.535156 23.109375 57.535156 L 23.140625 57.535156 C 24.769531 57.519531 26.285156 56.773438 27.292969 55.488281 C 28.636719 53.777344 30.628906 51.226562 30.628906 51.226562 C 31.511719 50.089844 32.9375 49.382812 34.363281 49.382812 C 35.464844 49.371094 36.515625 49.722656 37.386719 50.402344 C 37.628906 50.589844 37.671875 50.941406 37.480469 51.183594 L 29.152344 61.835938 C 28.519531 62.644531 28.167969 63.679688 28.167969 64.746094 C 28.160156 67.398438 26.347656 69.648438 23.757812 70.222656 L 20.136719 71.023438 C 19.167969 71.238281 18.492188 72.082031 18.492188 73.078125 L 18.492188 83.847656 C 18.492188 83.980469 18.382812 84.089844 18.25 84.089844 L 2.875 84.058594 C 2.738281 84.058594 2.628906 83.949219 2.628906 83.816406 L 2.628906 74.027344 C 2.65625 71.839844 2.777344 69.652344 3.269531 67.507812 L 3.8125 65.457031 C 3.996094 64.753906 3.578125 64.035156 2.875 63.851562 C 2.171875 63.664062 1.453125 64.082031 1.269531 64.785156 L 0.726562 66.835938 C 0.167969 69.203125 0.0273438 71.609375 0 74.027344 L 0 83.816406 C 0 85.398438 1.289062 86.6875 2.871094 86.6875 L 18.246094 86.71875 C 19.832031 86.71875 21.121094 85.429688 21.121094 83.847656 L 21.121094 77.539062 C 21.652344 78.152344 22.429688 78.539062 23.300781 78.539062 L 64.703125 78.539062 C 65.570312 78.539062 66.347656 78.152344 66.878906 77.542969 L 66.878906 83.847656 C 66.878906 85.429688 68.167969 86.71875 69.753906 86.71875 L 85.125 86.6875 C 86.710938 86.6875 88 85.398438 88 83.816406 L 88 74.027344 C 88 72.019531 87.839844 69.992188 87.523438 68.007812 Z M 85.371094 83.816406 C 85.371094 83.949219 85.261719 84.058594 85.125 84.058594 L 69.753906 84.089844 C 69.617188 84.089844 69.507812 83.980469 69.507812 83.847656 L 69.507812 73.078125 C 69.507812 72.082031 68.832031 71.238281 67.863281 71.023438 L 64.242188 70.222656 C 61.652344 69.648438 59.839844 67.398438 59.832031 64.746094 C 59.832031 63.679688 59.480469 62.644531 58.847656 61.835938 L 50.519531 51.183594 C 50.328125 50.941406 50.371094 50.589844 50.613281 50.402344 C 51.484375 49.71875 52.523438 49.367188 53.648438 49.382812 C 55.0625 49.382812 56.488281 50.089844 57.371094 51.226562 C 57.371094 51.226562 59.367188 53.777344 60.707031 55.488281 C 61.714844 56.773438 63.230469 57.519531 64.875 57.535156 L 64.894531 57.535156 C 67.738281 57.535156 70.058594 55.21875 70.0625 52.371094 L 70.078125 43.636719 C 70.078125 42.964844 69.980469 42.300781 69.777344 41.660156 L 67.589844 34.671875 L 67.589844 22.90625 C 67.613281 22.945312 67.632812 22.984375 67.652344 23.023438 L 75.949219 41.574219 C 76.398438 42.578125 76.988281 43.511719 77.707031 44.351562 C 78.566406 45.355469 79.199219 46.5625 79.539062 47.839844 L 84.730469 67.507812 C 84.816406 67.835938 84.882812 68.136719 84.925781 68.421875 C 85.222656 70.269531 85.371094 72.15625 85.371094 74.027344 Z M 85.371094 83.816406 "/>
<path style=" stroke:none;fill-rule:nonzero;fill:rgb(0%,0%,0%);fill-opacity:1;" d="M 31.191406 20.820312 C 33.8125 20.820312 35.945312 18.6875 35.945312 16.066406 C 35.945312 13.445312 33.8125 11.3125 31.191406 11.3125 C 28.570312 11.3125 26.4375 13.445312 26.4375 16.066406 C 26.4375 18.6875 28.570312 20.820312 31.191406 20.820312 Z M 31.191406 13.941406 C 32.363281 13.941406 33.316406 14.894531 33.316406 16.066406 C 33.316406 17.238281 32.363281 18.191406 31.191406 18.191406 C 30.019531 18.191406 29.066406 17.238281 29.066406 16.066406 C 29.066406 14.894531 30.019531 13.941406 31.191406 13.941406 Z M 31.191406 13.941406 "/>
<path style=" stroke:none;fill-rule:nonzero;fill:rgb(0%,0%,0%);fill-opacity:1;" d="M 56.675781 20.820312 C 59.296875 20.820312 61.429688 18.6875 61.429688 16.066406 C 61.429688 13.445312 59.296875 11.3125 56.675781 11.3125 C 54.054688 11.3125 51.921875 13.445312 51.921875 16.066406 C 51.921875 18.6875 54.050781 20.820312 56.675781 20.820312 Z M 56.675781 13.941406 C 57.847656 13.941406 58.800781 14.894531 58.800781 16.066406 C 58.800781 17.238281 57.847656 18.191406 56.675781 18.191406 C 55.503906 18.191406 54.550781 17.238281 54.550781 16.066406 C 54.550781 14.894531 55.503906 13.941406 56.675781 13.941406 Z M 56.675781 13.941406 "/>
<path style=" stroke:none;fill-rule:nonzero;fill:rgb(0%,0%,0%);fill-opacity:1;" d="M 31.191406 32.507812 C 33.8125 32.507812 35.945312 30.375 35.945312 27.753906 C 35.945312 25.132812 33.8125 23 31.191406 23 C 28.570312 23 26.4375 25.132812 26.4375 27.753906 C 26.4375 30.375 28.570312 32.507812 31.191406 32.507812 Z M 31.191406 25.628906 C 32.363281 25.628906 33.316406 26.582031 33.316406 27.753906 C 33.316406 28.925781 32.363281 29.878906 31.191406 29.878906 C 30.019531 29.878906 29.066406 28.925781 29.066406 27.753906 C 29.066406 26.582031 30.019531 25.628906 31.191406 25.628906 Z M 31.191406 25.628906 "/>
<path style=" stroke:none;fill-rule:nonzero;fill:rgb(0%,0%,0%);fill-opacity:1;" d="M 39.070312 39.265625 C 39.070312 41.890625 41.203125 44.023438 43.828125 44.023438 C 46.449219 44.023438 48.582031 41.890625 48.582031 39.265625 C 48.582031 36.644531 46.449219 34.511719 43.828125 34.511719 C 41.203125 34.511719 39.070312 36.644531 39.070312 39.265625 Z M 45.949219 39.265625 C 45.949219 40.4375 44.996094 41.390625 43.828125 41.390625 C 42.65625 41.390625 41.703125 40.4375 41.703125 39.265625 C 41.703125 38.097656 42.65625 37.140625 43.828125 37.140625 C 44.996094 37.140625 45.949219 38.097656 45.949219 39.265625 Z M 45.949219 39.265625 "/>
<path style=" stroke:none;fill-rule:nonzero;fill:rgb(0%,0%,0%);fill-opacity:1;" d="M 41.710938 20.667969 L 45.945312 20.667969 C 46.945312 20.667969 47.839844 20.152344 48.339844 19.285156 C 48.839844 18.417969 48.839844 17.382812 48.339844 16.519531 L 46.222656 12.851562 C 45.722656 11.984375 44.828125 11.46875 43.824219 11.46875 C 42.824219 11.46875 41.929688 11.984375 41.429688 12.851562 L 39.3125 16.515625 C 38.8125 17.382812 38.8125 18.417969 39.3125 19.285156 C 39.8125 20.152344 40.707031 20.667969 41.710938 20.667969 Z M 41.589844 17.832031 L 43.707031 14.164062 C 43.71875 14.144531 43.746094 14.097656 43.828125 14.097656 C 43.90625 14.097656 43.933594 14.144531 43.945312 14.164062 L 46.0625 17.832031 C 46.074219 17.851562 46.101562 17.902344 46.0625 17.96875 C 46.023438 18.039062 45.96875 18.039062 45.945312 18.039062 L 41.710938 18.039062 C 41.683594 18.039062 41.628906 18.039062 41.589844 17.96875 C 41.550781 17.902344 41.578125 17.851562 41.589844 17.832031 Z M 41.589844 17.832031 "/>
<path style=" stroke:none;fill-rule:nonzero;fill:rgb(0%,0%,0%);fill-opacity:1;" d="M 54.558594 32.355469 L 58.792969 32.355469 C 59.792969 32.355469 60.6875 31.839844 61.1875 30.972656 C 61.6875 30.105469 61.6875 29.070312 61.1875 28.207031 L 59.070312 24.539062 C 58.570312 23.671875 57.675781 23.15625 56.675781 23.15625 C 55.675781 23.15625 54.777344 23.671875 54.277344 24.539062 L 52.160156 28.207031 C 51.660156 29.070312 51.660156 30.105469 52.160156 30.972656 C 52.660156 31.839844 53.558594 32.355469 54.558594 32.355469 Z M 54.4375 29.519531 L 56.554688 25.851562 C 56.566406 25.832031 56.59375 25.785156 56.675781 25.785156 C 56.753906 25.785156 56.78125 25.832031 56.792969 25.851562 L 58.910156 29.519531 C 58.921875 29.539062 58.949219 29.589844 58.910156 29.65625 C 58.871094 29.726562 58.816406 29.726562 58.792969 29.726562 L 54.558594 29.726562 C 54.535156 29.726562 54.476562 29.726562 54.4375 29.65625 C 54.398438 29.589844 54.425781 29.539062 54.4375 29.519531 Z M 54.4375 29.519531 "/>
<path style=" stroke:none;fill-rule:nonzero;fill:rgb(0%,0%,0%);fill-opacity:1;" d="M 26.679688 42.660156 C 27.179688 43.527344 28.074219 44.042969 29.074219 44.042969 L 33.308594 44.042969 C 34.308594 44.042969 35.207031 43.527344 35.707031 42.660156 C 36.207031 41.792969 36.207031 40.757812 35.707031 39.890625 L 33.589844 36.226562 C 33.089844 35.359375 32.191406 34.84375 31.191406 34.84375 C 30.191406 34.84375 29.296875 35.359375 28.796875 36.226562 L 26.679688 39.890625 C 26.179688 40.757812 26.179688 41.792969 26.679688 42.660156 Z M 28.957031 41.207031 L 31.074219 37.539062 C 31.085938 37.519531 31.113281 37.472656 31.191406 37.472656 C 31.273438 37.472656 31.300781 37.519531 31.3125 37.539062 L 33.429688 41.207031 C 33.441406 41.226562 33.46875 41.277344 33.429688 41.34375 C 33.390625 41.414062 33.332031 41.414062 33.308594 41.414062 L 29.074219 41.414062 C 29.050781 41.414062 28.996094 41.414062 28.957031 41.34375 C 28.917969 41.277344 28.945312 41.226562 28.957031 41.207031 Z M 28.957031 41.207031 "/>
<path style=" stroke:none;fill-rule:nonzero;fill:rgb(0%,0%,0%);fill-opacity:1;" d="M 39.761719 70.21875 C 39.035156 70.21875 38.445312 70.808594 38.445312 71.535156 C 38.445312 72.261719 39.035156 72.847656 39.761719 72.847656 L 48.242188 72.847656 C 48.96875 72.847656 49.558594 72.261719 49.558594 71.535156 C 49.558594 70.808594 48.96875 70.21875 48.242188 70.21875 Z M 39.761719 70.21875 "/>
<path style=" stroke:none;fill-rule:nonzero;fill:rgb(0%,0%,0%);fill-opacity:1;" d="M 53.378906 35.734375 C 52.171875 35.734375 51.1875 36.714844 51.1875 37.921875 L 51.1875 41.851562 C 51.1875 43.058594 52.171875 44.042969 53.378906 44.042969 L 59.96875 44.042969 C 61.175781 44.042969 62.160156 43.058594 62.160156 41.851562 L 62.160156 37.921875 C 62.160156 36.714844 61.175781 35.734375 59.96875 35.734375 Z M 59.53125 41.414062 L 53.816406 41.414062 L 53.816406 38.363281 L 59.53125 38.363281 Z M 59.53125 41.414062 "/>
<path style=" stroke:none;fill-rule:nonzero;fill:rgb(0%,0%,0%);fill-opacity:1;" d="M 49.3125 29.71875 L 49.3125 25.792969 C 49.3125 24.582031 48.332031 23.601562 47.121094 23.601562 L 40.535156 23.601562 C 39.324219 23.601562 38.34375 24.582031 38.34375 25.792969 L 38.34375 29.71875 C 38.34375 30.925781 39.324219 31.910156 40.535156 31.910156 L 47.121094 31.910156 C 48.332031 31.910156 49.3125 30.925781 49.3125 29.71875 Z M 46.683594 29.28125 L 40.972656 29.28125 L 40.972656 26.230469 L 46.683594 26.230469 Z M 46.683594 29.28125 "/>
</g>
</svg>
