<?xml version="1.0" encoding="UTF-8"?>
<svg xmlns="http://www.w3.org/2000/svg" xmlns:xlink="http://www.w3.org/1999/xlink" width="26pt" height="26pt" viewBox="0 0 26 26" version="1.1">
<g id="surface1">
<path style=" stroke:none;fill-rule:nonzero;fill:rgb(0%,0%,0%);fill-opacity:1;" d="M 25.992188 11.246094 C 25.945312 10.636719 25.664062 10.085938 25.203125 9.6875 L 22.953125 7.761719 L 22.953125 2.28125 C 22.953125 1.863281 22.613281 1.519531 22.191406 1.519531 L 19.144531 1.519531 C 18.722656 1.519531 18.394531 1.863281 18.394531 2.28125 L 18.394531 3.84375 L 14.539062 0.558594 C 13.675781 -0.179688 12.425781 -0.179688 11.566406 0.554688 L 0.796875 9.6875 C -0.152344 10.503906 -0.277344 11.945312 0.550781 12.910156 C 1.183594 13.644531 2.195312 13.878906 3.058594 13.578125 L 3.058594 25.234375 C 3.058594 25.65625 3.386719 25.996094 3.808594 25.996094 L 22.191406 25.996094 C 22.613281 25.996094 22.953125 25.65625 22.953125 25.234375 L 22.953125 13.578125 C 23.84375 13.890625 24.832031 13.628906 25.449219 12.910156 C 25.847656 12.445312 26.039062 11.855469 25.992188 11.246094 Z M 19.90625 3.042969 L 21.441406 3.042969 L 21.441406 6.453125 L 19.90625 5.148438 Z M 16.109375 24.472656 L 9.902344 24.472656 L 9.902344 18.371094 L 16.109375 18.371094 Z M 21.441406 24.472656 L 17.621094 24.472656 L 17.621094 17.617188 C 17.621094 17.199219 17.28125 16.855469 16.859375 16.855469 L 9.140625 16.855469 C 8.71875 16.855469 8.390625 17.199219 8.390625 17.617188 L 8.390625 24.472656 L 4.570312 24.472656 L 4.570312 12.480469 L 13.046875 5.289062 L 21.441406 12.472656 Z M 24.292969 11.917969 C 24.023438 12.234375 23.542969 12.277344 23.21875 12 L 13.546875 3.710938 C 13.261719 3.464844 12.84375 3.464844 12.558594 3.707031 C 12.351562 3.882812 2.824219 11.964844 2.78125 12 C 2.464844 12.273438 1.980469 12.234375 1.707031 11.917969 C 1.433594 11.597656 1.472656 11.117188 1.789062 10.847656 L 12.554688 1.714844 C 12.84375 1.46875 13.257812 1.46875 13.546875 1.714844 L 24.210938 10.84375 C 24.53125 11.117188 24.566406 11.597656 24.292969 11.917969 Z M 24.292969 11.917969 "/>
<path style=" stroke:none;fill-rule:nonzero;fill:rgb(0%,0%,0%);fill-opacity:1;" d="M 15.335938 9.136719 L 10.664062 9.136719 C 10.242188 9.136719 9.914062 9.480469 9.914062 9.898438 L 9.914062 14.46875 C 9.914062 14.890625 10.242188 15.230469 10.664062 15.230469 L 15.335938 15.230469 C 15.757812 15.230469 16.097656 14.890625 16.097656 14.46875 L 16.097656 9.898438 C 16.097656 9.476562 15.757812 9.136719 15.335938 9.136719 Z M 14.585938 13.707031 L 11.425781 13.707031 L 11.425781 10.660156 L 14.585938 10.660156 Z M 14.585938 13.707031 "/>
<path style=" stroke:none;fill-rule:nonzero;fill:rgb(0%,0%,0%);fill-opacity:1;" d="M 14.574219 20.664062 C 14.574219 21.085938 14.234375 21.425781 13.8125 21.425781 C 13.390625 21.425781 13.050781 21.085938 13.050781 20.664062 C 13.050781 20.242188 13.390625 19.902344 13.8125 19.902344 C 14.234375 19.902344 14.574219 20.242188 14.574219 20.664062 Z M 14.574219 20.664062 "/>
</g>
</svg>
