<?xml version="1.0" encoding="UTF-8"?>
<svg xmlns="http://www.w3.org/2000/svg" xmlns:xlink="http://www.w3.org/1999/xlink" width="92pt" height="92pt" viewBox="0 0 92 92" version="1.1">
<g id="surface1">
<path style=" stroke:none;fill-rule:nonzero;fill:rgb(21.176471%,36.862745%,49.019608%);fill-opacity:1;" d="M 53.027344 87.382812 L 4.140625 87.382812 C 2.597656 87.382812 1.347656 86.132812 1.347656 84.589844 L 1.347656 7.410156 C 1.347656 5.867188 2.597656 4.617188 4.140625 4.617188 L 53.027344 4.617188 C 54.570312 4.617188 55.820312 5.867188 55.820312 7.410156 L 55.820312 84.589844 C 55.820312 86.132812 54.570312 87.382812 53.027344 87.382812 Z M 53.027344 87.382812 "/>
<path style=" stroke:none;fill-rule:nonzero;fill:rgb(16.862745%,30.196078%,40%);fill-opacity:1;" d="M 53.027344 4.617188 L 49.507812 4.617188 C 51.050781 4.617188 52.300781 5.867188 52.300781 7.410156 L 52.300781 84.589844 C 52.300781 86.132812 51.050781 87.382812 49.507812 87.382812 L 53.027344 87.382812 C 54.570312 87.382812 55.820312 86.132812 55.820312 84.589844 L 55.820312 7.410156 C 55.820312 5.867188 54.570312 4.617188 53.027344 4.617188 Z M 53.027344 4.617188 "/>
<path style=" stroke:none;fill-rule:nonzero;fill:rgb(82.745098%,93.72549%,98.431373%);fill-opacity:1;" d="M 39.726562 11.308594 L 39.726562 13.011719 C 39.726562 13.726562 39.144531 14.308594 38.425781 14.308594 L 18.742188 14.308594 C 18.023438 14.308594 17.441406 13.726562 17.441406 13.011719 L 17.441406 11.308594 C 17.441406 10.589844 16.863281 10.007812 16.144531 10.007812 L 8.035156 10.007812 C 7.320312 10.007812 6.738281 10.589844 6.738281 11.308594 L 6.738281 80.691406 C 6.738281 81.410156 7.320312 81.992188 8.035156 81.992188 L 49.132812 81.992188 C 49.847656 81.992188 50.429688 81.410156 50.429688 80.691406 L 50.429688 11.308594 C 50.429688 10.589844 49.847656 10.007812 49.132812 10.007812 L 41.023438 10.007812 C 40.304688 10.007812 39.726562 10.589844 39.726562 11.308594 Z M 39.726562 11.308594 "/>
<path style=" stroke:none;fill-rule:nonzero;fill:rgb(69.411765%,89.411765%,97.647059%);fill-opacity:1;" d="M 49.132812 10.007812 L 45.46875 10.007812 C 46.183594 10.007812 46.765625 10.589844 46.765625 11.308594 L 46.765625 80.695312 C 46.765625 81.410156 46.183594 81.992188 45.46875 81.992188 L 49.132812 81.992188 C 49.847656 81.992188 50.429688 81.410156 50.429688 80.695312 L 50.429688 11.308594 C 50.429688 10.589844 49.847656 10.007812 49.132812 10.007812 Z M 49.132812 10.007812 "/>
<path style=" stroke:none;fill-rule:nonzero;fill:rgb(47.058824%,76.078431%,64.313725%);fill-opacity:1;" d="M 88.351562 24.761719 L 44.855469 24.761719 C 43.585938 24.761719 42.554688 25.792969 42.554688 27.0625 L 42.554688 32.230469 C 42.554688 30.957031 43.585938 33.523438 44.855469 33.523438 L 88.351562 33.523438 C 89.621094 33.523438 90.652344 30.957031 90.652344 32.230469 L 90.652344 27.066406 C 90.652344 25.792969 89.621094 24.761719 88.351562 24.761719 Z M 88.351562 24.761719 "/>
<path style=" stroke:none;fill-rule:nonzero;fill:rgb(40%,70.196078%,58.039216%);fill-opacity:1;" d="M 88.351562 27.316406 L 44.855469 27.316406 C 43.585938 27.316406 42.554688 28.347656 42.554688 29.617188 L 42.554688 32.230469 C 42.554688 30.960938 43.585938 33.523438 44.855469 33.523438 L 88.351562 33.523438 C 89.621094 33.523438 90.652344 30.960938 90.652344 32.230469 L 90.652344 29.617188 C 90.652344 28.347656 89.621094 27.316406 88.351562 27.316406 Z M 88.351562 27.316406 "/>
<path style=" stroke:none;fill-rule:nonzero;fill:rgb(70.196078%,89.803922%,62.352941%);fill-opacity:1;" d="M 88.351562 29.929688 L 44.855469 29.929688 C 43.585938 29.929688 42.554688 30.960938 42.554688 32.230469 L 42.554688 40.164062 C 42.554688 40.703125 42.265625 41.203125 41.796875 41.472656 L 35.671875 45.011719 C 34.660156 45.59375 34.660156 47.050781 35.671875 47.632812 L 41.796875 51.171875 C 42.265625 51.441406 42.554688 51.941406 42.554688 52.484375 L 42.554688 60.417969 C 42.554688 61.6875 43.585938 62.71875 44.855469 62.71875 L 88.351562 62.71875 C 89.621094 62.71875 90.652344 61.6875 90.652344 60.417969 L 90.652344 32.230469 C 90.652344 30.960938 89.621094 29.929688 88.351562 29.929688 Z M 88.351562 29.929688 "/>
<path style=" stroke:none;fill-rule:nonzero;fill:rgb(58.431373%,83.921569%,64.313725%);fill-opacity:1;" d="M 88.351562 29.929688 L 83.714844 29.929688 C 84.988281 29.929688 86.015625 30.960938 86.015625 32.230469 L 86.015625 60.417969 C 86.015625 61.6875 84.988281 62.71875 83.714844 62.71875 L 88.351562 62.71875 C 89.621094 62.71875 90.652344 61.6875 90.652344 60.417969 L 90.652344 32.230469 C 90.652344 30.960938 89.621094 29.929688 88.351562 29.929688 Z M 88.351562 29.929688 "/>
<path style=" stroke:none;fill-rule:nonzero;fill:rgb(0%,0%,0%);fill-opacity:1;" d="M 30.308594 11.140625 C 31.054688 11.140625 31.65625 10.535156 31.65625 9.792969 C 31.65625 9.046875 31.054688 8.445312 30.308594 8.445312 L 26.859375 8.445312 C 26.113281 8.445312 25.511719 9.046875 25.511719 9.792969 C 25.511719 10.535156 26.113281 11.140625 26.859375 11.140625 Z M 30.308594 11.140625 "/>
<path style=" stroke:none;fill-rule:nonzero;fill:rgb(0%,0%,0%);fill-opacity:1;" d="M 88.351562 23.414062 L 57.167969 23.414062 L 57.167969 7.410156 C 57.167969 5.128906 55.308594 3.269531 53.027344 3.269531 L 15.015625 3.269531 C 14.273438 3.269531 13.667969 3.875 13.667969 4.617188 C 13.667969 5.363281 14.273438 5.964844 15.015625 5.964844 L 53.027344 5.964844 C 53.824219 5.964844 54.472656 6.613281 54.472656 7.410156 L 54.472656 23.414062 L 51.777344 23.414062 L 51.777344 11.308594 C 51.777344 9.847656 50.589844 8.660156 49.132812 8.660156 L 41.023438 8.660156 C 39.5625 8.660156 38.375 9.847656 38.375 11.308594 L 38.375 12.960938 L 18.789062 12.960938 L 18.789062 11.308594 C 18.789062 9.847656 17.605469 8.660156 16.144531 8.660156 L 8.035156 8.660156 C 6.578125 8.660156 5.390625 9.847656 5.390625 11.308594 L 5.390625 80.695312 C 5.390625 82.152344 6.578125 83.339844 8.035156 83.339844 L 15.59375 83.339844 C 16.335938 83.339844 16.941406 82.734375 16.941406 81.992188 C 16.941406 81.246094 16.335938 80.644531 15.59375 80.644531 L 8.085938 80.644531 L 8.085938 11.355469 L 16.09375 11.355469 L 16.09375 13.011719 C 16.09375 14.46875 17.28125 15.65625 18.742188 15.65625 L 38.425781 15.65625 C 39.886719 15.65625 41.074219 14.46875 41.074219 13.011719 L 41.074219 11.355469 L 49.082031 11.355469 L 49.082031 23.414062 L 44.855469 23.414062 C 42.84375 23.414062 41.207031 25.050781 41.207031 27.066406 L 41.207031 40.164062 C 41.207031 40.222656 41.175781 40.277344 41.125 40.308594 L 34.996094 43.84375 C 34.101562 44.363281 33.566406 45.289062 33.566406 46.324219 C 33.566406 47.359375 34.101562 48.285156 34.996094 48.800781 L 41.125 52.339844 C 41.175781 52.367188 41.207031 52.425781 41.207031 52.484375 L 41.207031 60.417969 C 41.207031 62.429688 42.84375 64.066406 44.855469 64.066406 L 49.082031 64.066406 L 49.082031 80.644531 L 20.980469 80.644531 C 20.234375 80.644531 19.632812 81.246094 19.632812 81.992188 C 19.632812 82.734375 20.234375 83.339844 20.980469 83.339844 L 49.132812 83.339844 C 50.589844 83.339844 51.777344 82.152344 51.777344 80.691406 L 51.777344 64.066406 L 54.472656 64.066406 L 54.472656 84.589844 C 54.472656 85.386719 53.824219 86.035156 53.027344 86.035156 L 4.140625 86.035156 C 3.34375 86.035156 2.695312 85.386719 2.695312 84.589844 L 2.695312 7.410156 C 2.695312 6.613281 3.34375 5.964844 4.140625 5.964844 L 9.628906 5.964844 C 10.371094 5.964844 10.976562 5.363281 10.976562 4.617188 C 10.976562 3.875 10.371094 3.269531 9.628906 3.269531 L 4.140625 3.269531 C 1.859375 3.269531 0 5.128906 0 7.410156 L 0 84.589844 C 0 86.871094 1.859375 88.730469 4.140625 88.730469 L 53.027344 88.730469 C 55.308594 88.730469 57.167969 86.871094 57.167969 84.589844 L 57.167969 64.066406 L 88.351562 64.066406 C 90.363281 64.066406 92 62.429688 92 60.417969 L 92 49.019531 C 92 48.273438 91.398438 47.671875 90.652344 47.671875 C 89.90625 47.671875 89.304688 48.273438 89.304688 49.019531 L 89.304688 60.417969 C 89.304688 60.941406 88.875 61.371094 88.351562 61.371094 L 44.855469 61.371094 C 44.332031 61.371094 43.902344 60.941406 43.902344 60.417969 L 43.902344 52.484375 C 43.902344 51.464844 43.355469 50.515625 42.472656 50.003906 L 36.34375 46.46875 C 36.320312 46.453125 36.261719 46.417969 36.261719 46.324219 C 36.261719 46.226562 36.320312 46.191406 36.34375 46.179688 L 42.472656 42.640625 C 43.355469 42.132812 43.902344 41.183594 43.902344 40.164062 L 43.902344 32.230469 C 43.902344 31.703125 44.332031 31.277344 44.855469 31.277344 L 88.351562 31.277344 C 88.878906 31.277344 89.304688 31.703125 89.304688 32.230469 L 89.304688 43.628906 C 89.304688 44.375 89.90625 44.976562 90.652344 44.976562 C 91.398438 44.976562 92 44.375 92 43.628906 L 92 27.066406 C 92 25.050781 90.363281 23.414062 88.351562 23.414062 Z M 88.351562 28.582031 L 44.855469 28.582031 C 44.527344 28.582031 44.207031 28.628906 43.902344 28.710938 L 43.902344 27.066406 C 43.902344 26.539062 44.332031 26.109375 44.855469 26.109375 L 88.351562 26.109375 C 88.878906 26.109375 89.304688 26.539062 89.304688 27.066406 L 89.304688 28.710938 C 89 28.628906 88.679688 28.582031 88.351562 28.582031 Z M 88.351562 28.582031 "/>
<path style=" stroke:none;fill-rule:nonzero;fill:rgb(0%,0%,0%);fill-opacity:1;" d="M 51.601562 44.652344 C 50.859375 44.652344 50.253906 45.253906 50.253906 46 C 50.253906 46.746094 50.859375 47.347656 51.601562 47.347656 L 53.71875 47.347656 C 54.460938 47.347656 55.066406 46.746094 55.066406 46 C 55.066406 45.253906 54.460938 44.652344 53.71875 44.652344 Z M 51.601562 44.652344 "/>
<path style=" stroke:none;fill-rule:nonzero;fill:rgb(0%,0%,0%);fill-opacity:1;" d="M 65.546875 44.652344 C 64.800781 44.652344 64.199219 45.253906 64.199219 46 C 64.199219 46.746094 64.800781 47.347656 65.546875 47.347656 L 67.660156 47.347656 C 68.40625 47.347656 69.007812 46.746094 69.007812 46 C 69.007812 45.253906 68.40625 44.652344 67.660156 44.652344 Z M 65.546875 44.652344 "/>
<path style=" stroke:none;fill-rule:nonzero;fill:rgb(0%,0%,0%);fill-opacity:1;" d="M 79.488281 44.652344 C 78.746094 44.652344 78.140625 45.253906 78.140625 46 C 78.140625 46.746094 78.746094 47.347656 79.488281 47.347656 L 81.605469 47.347656 C 82.347656 47.347656 82.953125 46.746094 82.953125 46 C 82.953125 45.253906 82.347656 44.652344 81.605469 44.652344 Z M 79.488281 44.652344 "/>
</g>
</svg>
