<?xml version="1.0" encoding="UTF-8"?>
<svg xmlns="http://www.w3.org/2000/svg" xmlns:xlink="http://www.w3.org/1999/xlink" width="92pt" height="92pt" viewBox="0 0 92 92" version="1.1">
<g id="surface1">
<path style=" stroke:none;fill-rule:nonzero;fill:rgb(90.980392%,96.470588%,98.823529%);fill-opacity:1;" d="M 7.722656 4.3125 L 55.699219 4.3125 L 55.699219 79.050781 L 7.722656 79.050781 Z M 7.722656 4.3125 "/>
<path style=" stroke:none;fill-rule:nonzero;fill:rgb(80.784314%,88.627451%,91.372549%);fill-opacity:1;" d="M 32.070312 4.3125 L 55.699219 4.3125 L 55.699219 79.050781 L 32.070312 79.050781 Z M 32.070312 4.3125 "/>
<path style=" stroke:none;fill-rule:nonzero;fill:rgb(12.941176%,17.254902%,73.333333%);fill-opacity:1;" d="M 52.015625 0 L 12.132812 0 C 7.667969 0 4.046875 3.621094 4.046875 8.085938 L 4.046875 84.242188 C 4.046875 88.527344 7.519531 92 11.804688 92 L 52.34375 92 C 56.628906 92 60.101562 88.527344 60.101562 84.242188 L 60.101562 8.085938 C 60.101562 3.621094 56.480469 0 52.015625 0 Z M 54.710938 70.976562 C 54.710938 73.652344 52.511719 75.828125 49.808594 75.828125 L 14.332031 75.828125 C 11.71875 75.828125 9.574219 73.792969 9.4375 71.238281 L 9.4375 8.085938 C 9.4375 6.597656 10.644531 5.390625 12.132812 5.390625 L 15.050781 5.390625 C 15.609375 5.390625 16.105469 5.726562 16.34375 6.234375 C 17.566406 8.871094 20.238281 10.707031 23.332031 10.707031 L 40.808594 10.707031 C 43.902344 10.707031 46.574219 8.871094 47.800781 6.234375 C 48.035156 5.726562 48.53125 5.390625 49.089844 5.390625 L 52.015625 5.390625 C 53.503906 5.390625 54.710938 6.597656 54.710938 8.085938 Z M 54.710938 70.976562 "/>
<path style=" stroke:none;fill-rule:nonzero;fill:rgb(0%,12.941176%,35.294118%);fill-opacity:1;" d="M 52.015625 0 L 32.070312 0 L 32.070312 10.707031 L 40.808594 10.707031 C 43.902344 10.707031 46.574219 8.871094 47.796875 6.234375 C 48.035156 5.726562 48.53125 5.390625 49.089844 5.390625 L 52.015625 5.390625 C 53.503906 5.390625 54.710938 6.597656 54.710938 8.085938 L 54.710938 70.976562 C 54.710938 73.652344 52.511719 75.828125 49.808594 75.828125 L 32.070312 75.828125 L 32.070312 92 L 52.34375 92 C 56.628906 92 60.101562 88.527344 60.101562 84.242188 L 60.101562 8.085938 C 60.101562 3.621094 56.480469 0 52.015625 0 Z M 52.015625 0 "/>
<path style=" stroke:none;fill-rule:evenodd;fill:rgb(90.980392%,96.470588%,98.823529%);fill-opacity:1;" d="M 32.074219 86.609375 C 33.558594 86.609375 34.769531 85.398438 34.769531 83.914062 C 34.769531 82.429688 33.558594 81.21875 32.074219 81.21875 C 30.589844 81.21875 29.378906 82.429688 29.378906 83.914062 C 29.378906 85.398438 30.589844 86.609375 32.074219 86.609375 Z M 32.074219 86.609375 "/>
<path style=" stroke:none;fill-rule:nonzero;fill:rgb(0%,93.333333%,81.960784%);fill-opacity:1;" d="M 82.5625 65.585938 L 28.835938 65.585938 C 25.863281 65.585938 23.445312 63.167969 23.445312 60.195312 L 23.445312 26.414062 C 23.445312 23.441406 25.863281 21.023438 28.835938 21.023438 L 82.5625 21.023438 C 85.535156 21.023438 87.953125 23.441406 87.953125 26.414062 L 87.953125 60.195312 C 87.953125 63.167969 85.535156 65.585938 82.5625 65.585938 Z M 82.5625 65.585938 "/>
<path style=" stroke:none;fill-rule:nonzero;fill:rgb(0%,80%,70.196078%);fill-opacity:1;" d="M 82.5625 21.023438 L 55.699219 21.023438 L 55.699219 65.585938 L 82.5625 65.585938 C 85.535156 65.585938 87.953125 63.167969 87.953125 60.195312 L 87.953125 26.414062 C 87.953125 23.441406 85.535156 21.023438 82.5625 21.023438 Z M 82.5625 21.023438 "/>
<path style=" stroke:none;fill-rule:evenodd;fill:rgb(80.784314%,88.627451%,91.372549%);fill-opacity:1;" d="M 32.074219 81.21875 C 32.074219 81.21875 32.070312 81.21875 32.070312 81.21875 L 32.070312 86.609375 C 32.070312 86.609375 32.074219 86.609375 32.074219 86.609375 C 33.558594 86.609375 34.769531 85.398438 34.769531 83.914062 C 34.769531 82.429688 33.558594 81.21875 32.074219 81.21875 Z M 32.074219 81.21875 "/>
<path style=" stroke:none;fill-rule:nonzero;fill:rgb(0%,25.098039%,62.745098%);fill-opacity:1;" d="M 38.359375 41.6875 L 36.921875 41.6875 C 35.433594 41.6875 34.226562 40.480469 34.226562 38.992188 C 34.226562 37.503906 35.433594 36.296875 36.921875 36.296875 L 38.359375 36.296875 C 39.847656 36.296875 41.054688 37.503906 41.054688 38.992188 C 41.054688 40.480469 39.847656 41.6875 38.359375 41.6875 Z M 38.359375 41.6875 "/>
<path style=" stroke:none;fill-rule:nonzero;fill:rgb(0%,25.098039%,62.745098%);fill-opacity:1;" d="M 63.15625 55.164062 L 36.921875 55.164062 C 35.433594 55.164062 34.226562 53.957031 34.226562 52.46875 C 34.226562 50.980469 35.433594 49.773438 36.921875 49.773438 L 63.15625 49.773438 C 64.644531 49.773438 65.851562 50.980469 65.851562 52.46875 C 65.851562 53.957031 64.644531 55.164062 63.15625 55.164062 Z M 63.15625 55.164062 "/>
<path style=" stroke:none;fill-rule:nonzero;fill:rgb(0%,12.941176%,35.294118%);fill-opacity:1;" d="M 63.15625 49.773438 L 55.699219 49.773438 L 55.699219 55.164062 L 63.15625 55.164062 C 64.644531 55.164062 65.851562 53.957031 65.851562 52.46875 C 65.851562 50.980469 64.644531 49.773438 63.15625 49.773438 Z M 63.15625 49.773438 "/>
<path style=" stroke:none;fill-rule:nonzero;fill:rgb(0%,25.098039%,62.745098%);fill-opacity:1;" d="M 50.578125 41.6875 L 49.140625 41.6875 C 47.652344 41.6875 46.445312 40.480469 46.445312 38.992188 C 46.445312 37.503906 47.652344 36.296875 49.140625 36.296875 L 50.578125 36.296875 C 52.066406 36.296875 53.273438 37.503906 53.273438 38.992188 C 53.273438 40.480469 52.066406 41.6875 50.578125 41.6875 Z M 50.578125 41.6875 "/>
<path style=" stroke:none;fill-rule:nonzero;fill:rgb(0%,12.941176%,35.294118%);fill-opacity:1;" d="M 62.796875 41.6875 L 61.359375 41.6875 C 59.871094 41.6875 58.664062 40.480469 58.664062 38.992188 C 58.664062 37.503906 59.871094 36.296875 61.359375 36.296875 L 62.796875 36.296875 C 64.285156 36.296875 65.492188 37.503906 65.492188 38.992188 C 65.492188 40.480469 64.285156 41.6875 62.796875 41.6875 Z M 62.796875 41.6875 "/>
<path style=" stroke:none;fill-rule:nonzero;fill:rgb(0%,12.941176%,35.294118%);fill-opacity:1;" d="M 75.015625 41.6875 L 73.578125 41.6875 C 72.089844 41.6875 70.882812 40.480469 70.882812 38.992188 C 70.882812 37.503906 72.089844 36.296875 73.578125 36.296875 L 75.015625 36.296875 C 76.503906 36.296875 77.710938 37.503906 77.710938 38.992188 C 77.710938 40.480469 76.503906 41.6875 75.015625 41.6875 Z M 75.015625 41.6875 "/>
</g>
</svg>
