<?xml version="1.0" encoding="UTF-8"?>
<svg xmlns="http://www.w3.org/2000/svg" xmlns:xlink="http://www.w3.org/1999/xlink" width="28pt" height="28pt" viewBox="0 0 28 28" version="1.1">
<g id="surface1">
<path style=" stroke:none;fill-rule:nonzero;fill:rgb(12.941176%,58.823529%,95.294118%);fill-opacity:1;" d="M 14 0.875 C 6.761719 0.875 0.875 6.761719 0.875 14 C 0.875 21.238281 6.761719 27.125 14 27.125 C 21.238281 27.125 27.125 21.238281 27.125 14 C 27.125 6.761719 21.238281 0.875 14 0.875 Z M 14 0.875 "/>
<path style=" stroke:none;fill-rule:nonzero;fill:rgb(100%,100%,100%);fill-opacity:1;" d="M 20.707031 11.375 L 13.125 11.375 L 13.125 6.707031 L 5.542969 14 L 13.125 21.292969 L 13.125 16.625 L 20.707031 16.625 C 21.035156 16.625 21.292969 16.367188 21.292969 16.042969 L 21.292969 11.957031 C 21.292969 11.632812 21.035156 11.375 20.707031 11.375 Z M 20.707031 11.375 "/>
<path style=" stroke:none;fill-rule:nonzero;fill:rgb(0%,0%,0%);fill-opacity:1;" d="M 13.125 22.167969 C 12.902344 22.167969 12.683594 22.082031 12.519531 21.921875 L 4.933594 14.632812 C 4.761719 14.464844 4.667969 14.238281 4.667969 14 C 4.667969 13.761719 4.761719 13.535156 4.933594 13.367188 L 12.519531 6.078125 C 12.773438 5.832031 13.144531 5.765625 13.46875 5.902344 C 13.789062 6.039062 14 6.355469 14 6.707031 L 14 10.5 L 20.707031 10.5 C 21.511719 10.5 22.167969 11.15625 22.167969 11.957031 L 22.167969 16.042969 C 22.167969 16.84375 21.511719 17.5 20.707031 17.5 L 14 17.5 L 14 21.292969 C 14 21.644531 13.789062 21.960938 13.46875 22.097656 C 13.355469 22.144531 13.242188 22.167969 13.125 22.167969 Z M 6.804688 14 L 12.25 19.234375 L 12.25 16.625 C 12.25 16.140625 12.640625 15.75 13.125 15.75 L 20.417969 15.75 L 20.417969 12.25 L 13.125 12.25 C 12.640625 12.25 12.25 11.859375 12.25 11.375 L 12.25 8.765625 Z M 6.804688 14 "/>
<path style=" stroke:none;fill-rule:nonzero;fill:rgb(0%,0%,0%);fill-opacity:1;" d="M 14 28 C 6.28125 28 0 21.71875 0 14 C 0 6.28125 6.28125 0 14 0 C 21.71875 0 28 6.28125 28 14 C 28 21.71875 21.71875 28 14 28 Z M 14 1.75 C 7.246094 1.75 1.75 7.246094 1.75 14 C 1.75 20.753906 7.246094 26.25 14 26.25 C 20.753906 26.25 26.25 20.753906 26.25 14 C 26.25 7.246094 20.753906 1.75 14 1.75 Z M 14 1.75 "/>
</g>
</svg>
