<?xml version="1.0" encoding="UTF-8"?>
<svg xmlns="http://www.w3.org/2000/svg" xmlns:xlink="http://www.w3.org/1999/xlink" width="28pt" height="28pt" viewBox="0 0 28 28" version="1.1">
<g id="surface1">
<path style=" stroke:none;fill-rule:nonzero;fill:rgb(96.078431%,45.098039%,49.803922%);fill-opacity:1;" d="M 24.824219 4.050781 C 24.824219 5.015625 24.042969 5.800781 23.074219 5.800781 C 22.109375 5.800781 21.324219 5.015625 21.324219 4.050781 C 21.324219 3.082031 22.109375 2.300781 23.074219 2.300781 C 24.042969 2.300781 24.824219 3.082031 24.824219 4.050781 Z M 24.824219 4.050781 "/>
<path style=" stroke:none;fill-rule:nonzero;fill:rgb(84.705882%,92.54902%,51.764706%);fill-opacity:1;" d="M 6.675781 23.949219 C 6.675781 24.917969 5.890625 25.699219 4.925781 25.699219 C 3.957031 25.699219 3.175781 24.917969 3.175781 23.949219 C 3.175781 22.984375 3.957031 22.199219 4.925781 22.199219 C 5.890625 22.199219 6.675781 22.984375 6.675781 23.949219 Z M 6.675781 23.949219 "/>
<path style=" stroke:none;fill-rule:nonzero;fill:rgb(56.862745%,87.058824%,96.078431%);fill-opacity:1;" d="M 21.921875 12.285156 C 21.710938 11.316406 21.332031 10.410156 20.808594 9.605469 L 21.855469 8.554688 L 19.4375 6.136719 L 18.390625 7.1875 C 17.585938 6.664062 16.679688 6.28125 15.710938 6.074219 L 15.710938 4.59375 L 12.289062 4.59375 L 12.289062 6.074219 C 11.320312 6.28125 10.414062 6.664062 9.609375 7.1875 L 8.5625 6.136719 L 6.144531 8.554688 L 7.191406 9.605469 C 6.667969 10.410156 6.289062 11.316406 6.078125 12.285156 L 4.59375 12.285156 L 4.59375 15.703125 L 6.078125 15.703125 C 6.289062 16.675781 6.667969 17.578125 7.191406 18.386719 L 6.136719 19.4375 L 8.554688 21.855469 L 9.609375 20.804688 C 10.414062 21.324219 11.320312 21.707031 12.289062 21.914062 L 12.289062 23.40625 L 15.710938 23.40625 L 15.710938 21.914062 C 16.679688 21.707031 17.585938 21.324219 18.390625 20.804688 L 19.445312 21.855469 L 21.859375 19.4375 L 20.808594 18.386719 C 21.332031 17.578125 21.710938 16.675781 21.921875 15.703125 L 23.40625 15.703125 L 23.40625 12.285156 Z M 14 17.972656 C 11.804688 17.972656 10.027344 16.195312 10.027344 14 C 10.027344 11.804688 11.804688 10.027344 14 10.027344 C 16.195312 10.027344 17.972656 11.804688 17.972656 14 C 17.972656 16.195312 16.195312 17.972656 14 17.972656 Z M 14 17.972656 "/>
<path style=" stroke:none;fill-rule:nonzero;fill:rgb(0%,0%,0%);fill-opacity:1;" d="M 4.925781 21.652344 C 4.53125 21.652344 4.15625 21.75 3.820312 21.933594 C 2.058594 19.675781 1.09375 16.871094 1.09375 14 C 1.09375 6.882812 6.882812 1.09375 14 1.09375 C 14.863281 1.09375 15.730469 1.179688 16.570312 1.351562 C 16.867188 1.410156 17.15625 1.21875 17.214844 0.921875 C 17.273438 0.625 17.082031 0.335938 16.785156 0.277344 C 15.875 0.09375 14.9375 0 14 0 C 10.261719 0 6.746094 1.457031 4.101562 4.101562 C 1.457031 6.746094 0 10.261719 0 14 C 0 17.144531 1.066406 20.214844 3.011719 22.675781 C 2.761719 23.050781 2.628906 23.488281 2.628906 23.949219 C 2.628906 24.5625 2.867188 25.140625 3.300781 25.574219 C 3.734375 26.007812 4.3125 26.246094 4.925781 26.246094 C 5.539062 26.246094 6.113281 26.007812 6.546875 25.574219 C 6.984375 25.140625 7.222656 24.5625 7.222656 23.949219 C 7.222656 23.335938 6.984375 22.761719 6.546875 22.324219 C 6.113281 21.890625 5.539062 21.652344 4.925781 21.652344 Z M 5.773438 24.800781 C 5.546875 25.027344 5.246094 25.152344 4.925781 25.152344 C 4.601562 25.152344 4.300781 25.027344 4.074219 24.800781 C 3.847656 24.574219 3.722656 24.273438 3.722656 23.949219 C 3.722656 23.628906 3.847656 23.328125 4.074219 23.097656 C 4.300781 22.871094 4.601562 22.746094 4.925781 22.746094 C 5.246094 22.746094 5.546875 22.871094 5.773438 23.097656 C 6.003906 23.328125 6.128906 23.628906 6.128906 23.949219 C 6.128906 24.273438 6.003906 24.574219 5.773438 24.800781 Z M 5.773438 24.800781 "/>
<path style=" stroke:none;fill-rule:nonzero;fill:rgb(0%,0%,0%);fill-opacity:1;" d="M 24.988281 5.324219 C 25.582031 4.429688 25.484375 3.210938 24.699219 2.425781 C 24.265625 1.992188 23.6875 1.753906 23.074219 1.753906 C 22.460938 1.753906 21.886719 1.992188 21.453125 2.425781 C 21.015625 2.859375 20.777344 3.4375 20.777344 4.050781 C 20.777344 4.664062 21.015625 5.238281 21.453125 5.671875 C 21.886719 6.109375 22.460938 6.347656 23.074219 6.347656 C 23.46875 6.347656 23.84375 6.25 24.179688 6.066406 C 25.941406 8.324219 26.90625 11.128906 26.90625 14 C 26.90625 21.117188 21.117188 26.90625 14 26.90625 C 13.144531 26.90625 12.285156 26.820312 11.453125 26.65625 C 11.15625 26.597656 10.871094 26.789062 10.8125 27.085938 C 10.75 27.378906 10.945312 27.667969 11.238281 27.726562 C 12.140625 27.910156 13.070312 28 14 28 C 17.738281 28 21.253906 26.542969 23.898438 23.898438 C 26.542969 21.253906 28 17.738281 28 14 C 28 10.855469 26.933594 7.785156 24.988281 5.324219 Z M 22.226562 4.902344 C 21.996094 4.671875 21.871094 4.371094 21.871094 4.050781 C 21.871094 3.726562 21.996094 3.425781 22.226562 3.199219 C 22.453125 2.972656 22.753906 2.847656 23.074219 2.847656 C 23.398438 2.847656 23.699219 2.972656 23.925781 3.199219 C 24.394531 3.667969 24.394531 4.429688 23.925781 4.902344 C 23.699219 5.128906 23.398438 5.253906 23.074219 5.253906 C 22.753906 5.253906 22.453125 5.128906 22.226562 4.902344 Z M 22.226562 4.902344 "/>
<path style=" stroke:none;fill-rule:nonzero;fill:rgb(0%,0%,0%);fill-opacity:1;" d="M 11.742188 23.40625 C 11.742188 23.707031 11.988281 23.953125 12.289062 23.953125 L 15.710938 23.953125 C 16.011719 23.953125 16.257812 23.707031 16.257812 23.40625 L 16.257812 22.347656 C 16.976562 22.152344 17.664062 21.867188 18.308594 21.496094 L 19.058594 22.242188 C 19.160156 22.347656 19.300781 22.402344 19.445312 22.402344 C 19.589844 22.402344 19.726562 22.347656 19.832031 22.242188 L 22.246094 19.824219 C 22.460938 19.613281 22.460938 19.265625 22.246094 19.050781 L 21.5 18.304688 C 21.871094 17.65625 22.15625 16.96875 22.351562 16.25 L 23.40625 16.25 C 23.710938 16.25 23.953125 16.007812 23.953125 15.703125 L 23.953125 12.285156 C 23.953125 11.984375 23.710938 11.738281 23.40625 11.738281 L 22.351562 11.738281 C 22.15625 11.019531 21.871094 10.332031 21.5 9.6875 L 22.242188 8.941406 C 22.347656 8.839844 22.402344 8.699219 22.402344 8.554688 C 22.402344 8.410156 22.347656 8.269531 22.242188 8.167969 L 19.824219 5.75 C 19.613281 5.539062 19.265625 5.539062 19.050781 5.753906 L 18.308594 6.496094 C 17.664062 6.121094 16.976562 5.835938 16.257812 5.644531 L 16.257812 4.59375 C 16.257812 4.292969 16.011719 4.046875 15.710938 4.046875 L 12.289062 4.046875 C 11.988281 4.046875 11.742188 4.292969 11.742188 4.59375 L 11.742188 5.644531 C 11.023438 5.835938 10.335938 6.121094 9.691406 6.496094 L 8.949219 5.753906 C 8.734375 5.539062 8.386719 5.539062 8.175781 5.75 L 5.757812 8.167969 C 5.652344 8.273438 5.597656 8.410156 5.597656 8.554688 C 5.597656 8.699219 5.652344 8.839844 5.757812 8.941406 L 6.5 9.6875 C 6.128906 10.332031 5.84375 11.019531 5.648438 11.738281 L 4.59375 11.738281 C 4.292969 11.738281 4.046875 11.984375 4.046875 12.285156 L 4.046875 15.703125 C 4.046875 15.847656 4.101562 15.988281 4.207031 16.089844 C 4.308594 16.195312 4.449219 16.25 4.59375 16.25 L 5.648438 16.25 C 5.84375 16.96875 6.128906 17.65625 6.5 18.304688 L 5.753906 19.050781 C 5.539062 19.265625 5.539062 19.613281 5.753906 19.824219 L 8.167969 22.242188 C 8.273438 22.347656 8.410156 22.402344 8.554688 22.402344 C 8.699219 22.402344 8.839844 22.347656 8.941406 22.242188 L 9.691406 21.496094 C 10.335938 21.867188 11.023438 22.152344 11.742188 22.347656 Z M 9.90625 20.34375 C 9.6875 20.207031 9.402344 20.234375 9.222656 20.417969 L 8.554688 21.082031 L 6.910156 19.4375 L 7.578125 18.773438 C 7.757812 18.589844 7.789062 18.304688 7.648438 18.089844 C 7.152344 17.324219 6.804688 16.480469 6.613281 15.589844 C 6.558594 15.339844 6.335938 15.15625 6.078125 15.15625 L 5.140625 15.15625 L 5.140625 12.832031 L 6.078125 12.832031 C 6.335938 12.832031 6.558594 12.652344 6.613281 12.398438 C 6.804688 11.507812 7.152344 10.667969 7.648438 9.898438 C 7.789062 9.683594 7.757812 9.398438 7.578125 9.21875 L 6.917969 8.554688 L 8.5625 6.910156 L 9.222656 7.574219 C 9.402344 7.753906 9.6875 7.785156 9.90625 7.644531 C 10.671875 7.148438 11.511719 6.800781 12.40625 6.609375 C 12.65625 6.554688 12.835938 6.332031 12.835938 6.074219 L 12.835938 5.140625 L 15.164062 5.140625 L 15.164062 6.074219 C 15.164062 6.332031 15.34375 6.554688 15.59375 6.609375 C 16.484375 6.800781 17.328125 7.148438 18.09375 7.644531 C 18.3125 7.785156 18.59375 7.753906 18.777344 7.574219 L 19.4375 6.910156 L 21.082031 8.554688 L 20.421875 9.214844 C 20.238281 9.398438 20.210938 9.683594 20.351562 9.898438 C 20.847656 10.667969 21.195312 11.507812 21.386719 12.398438 C 21.441406 12.652344 21.664062 12.832031 21.921875 12.832031 L 22.859375 12.832031 L 22.859375 15.15625 L 21.921875 15.15625 C 21.664062 15.15625 21.441406 15.339844 21.386719 15.589844 C 21.195312 16.480469 20.847656 17.324219 20.351562 18.089844 C 20.210938 18.304688 20.242188 18.589844 20.421875 18.773438 L 21.085938 19.4375 L 19.445312 21.082031 L 18.777344 20.417969 C 18.59375 20.234375 18.3125 20.207031 18.09375 20.34375 C 17.328125 20.839844 16.484375 21.191406 15.59375 21.382812 C 15.34375 21.433594 15.164062 21.65625 15.164062 21.914062 L 15.164062 22.859375 L 12.835938 22.859375 L 12.835938 21.914062 C 12.835938 21.65625 12.65625 21.433594 12.40625 21.382812 C 11.511719 21.191406 10.671875 20.839844 9.90625 20.34375 Z M 9.90625 20.34375 "/>
<path style=" stroke:none;fill-rule:nonzero;fill:rgb(0%,0%,0%);fill-opacity:1;" d="M 18.519531 14 C 18.519531 11.507812 16.492188 9.480469 14 9.480469 C 11.507812 9.480469 9.480469 11.507812 9.480469 14 C 9.480469 16.492188 11.507812 18.519531 14 18.519531 C 16.492188 18.519531 18.519531 16.492188 18.519531 14 Z M 10.574219 14 C 10.574219 12.113281 12.113281 10.574219 14 10.574219 C 15.886719 10.574219 17.425781 12.113281 17.425781 14 C 17.425781 15.886719 15.886719 17.425781 14 17.425781 C 12.113281 17.425781 10.574219 15.886719 10.574219 14 Z M 10.574219 14 "/>
<path style=" stroke:none;fill-rule:nonzero;fill:rgb(0%,0%,0%);fill-opacity:1;" d="M 19.035156 2.066406 C 19.179688 2.066406 19.320312 2.011719 19.421875 1.90625 C 19.523438 1.804688 19.582031 1.664062 19.582031 1.519531 C 19.582031 1.378906 19.523438 1.238281 19.421875 1.132812 C 19.320312 1.03125 19.179688 0.972656 19.035156 0.972656 C 18.890625 0.972656 18.75 1.03125 18.648438 1.132812 C 18.546875 1.238281 18.488281 1.378906 18.488281 1.519531 C 18.488281 1.664062 18.546875 1.804688 18.648438 1.90625 C 18.75 2.011719 18.890625 2.066406 19.035156 2.066406 Z M 19.035156 2.066406 "/>
<path style=" stroke:none;fill-rule:nonzero;fill:rgb(0%,0%,0%);fill-opacity:1;" d="M 8.988281 25.941406 C 8.84375 25.941406 8.703125 26 8.601562 26.101562 C 8.5 26.203125 8.441406 26.34375 8.441406 26.488281 C 8.441406 26.632812 8.5 26.773438 8.601562 26.875 C 8.703125 26.976562 8.84375 27.035156 8.988281 27.035156 C 9.132812 27.035156 9.273438 26.976562 9.375 26.875 C 9.476562 26.773438 9.535156 26.632812 9.535156 26.488281 C 9.535156 26.34375 9.476562 26.203125 9.375 26.101562 C 9.273438 26 9.132812 25.941406 8.988281 25.941406 Z M 8.988281 25.941406 "/>
</g>
</svg>
